<?xml version="1.0" encoding="iso-8859-1"?>
<!-- Generator: Adobe Illustrator 19.0.0, SVG Export Plug-In . SVG Version: 6.00 Build 0)  -->
<svg version="1.1" id="Capa_1" xmlns="http://www.w3.org/2000/svg" xmlns:xlink="http://www.w3.org/1999/xlink" x="0px" y="0px"
	 viewBox="0 0 480.181 480.181" style="enable-background:new 0 0 480.181 480.181;" xml:space="preserve">
<g>
	<g>
		<rect fill="#919191"  x="232.091" y="216.181" width="16" height="16"/>
	</g>
</g>
<g>
	<g>
		<path fill="#919191"  d="M256.091,64.181h-32c-8.837,0-16,7.163-16,16v32c0,8.837,7.163,16,16,16h32c8.837,0,16-7.163,16-16v-32
			C272.091,71.345,264.927,64.181,256.091,64.181z M256.091,112.181h-32v-32h32V112.181z"/>
	</g>
</g>
<g>
	<g>
		<path fill="#919191"  d="M240.091,32.181c-66.274,0-120,53.726-120,120s53.726,120,120,120c66.243-0.075,119.925-53.757,120-120
			C360.091,85.907,306.365,32.181,240.091,32.181z M312.091,227.053c-7.14,6.874-15.22,12.698-24,17.296v-28.168h-16v34.912
			c-20.794,6.782-43.206,6.782-64,0v-34.912h-16v28.168c-8.78-4.598-16.86-10.422-24-17.296v-34.872c0-17.673,14.327-32,32-32h4.152
			l29.6,37c2.759,3.451,7.794,4.011,11.244,1.252c0.462-0.37,0.882-0.789,1.252-1.252l29.6-37h4.152c17.673,0,32,14.327,32,32
			V227.053z M224.739,160.181h30.704l-15.352,19.2L224.739,160.181z M280.091,144.181h-80c-26.499,0.026-47.974,21.501-48,48v15.2
			c-30.597-48.479-16.1-112.583,32.379-143.18c16.646-10.506,35.937-16.062,55.621-16.02
			c57.327-0.122,103.898,46.252,104.02,103.579c0.042,19.684-5.514,38.974-16.02,55.621v-15.2
			C328.064,165.683,306.589,144.208,280.091,144.181z"/>
	</g>
</g>
<g>
	<g>
		<path fill="#919191"  d="M392.091,152.181C392.191,68.234,324.219,0.1,240.272,0C156.325-0.1,88.191,67.871,88.091,151.819
			c-0.089,74.751,54.186,138.472,128,150.275v18.088h-8c-4.418,0-8,3.582-8,8v144c0,4.418,3.582,8,8,8h64c4.418,0,8-3.582,8-8v-144
			c0-4.418-3.582-8-8-8h-8v-18.088C337.748,290.275,391.962,226.78,392.091,152.181z M264.091,464.181h-48v-128h48V464.181z
			 M232.091,320.181v-16h16v16H232.091z M240.091,288.181c-75.076-0.084-135.916-60.924-136-136c0-75.111,60.889-136,136-136
			s136,60.889,136,136S315.201,288.181,240.091,288.181z"/>
	</g>
</g>
<g>
	<g>
		<rect fill="#919191"  x="80.091" y="424.181" width="16" height="16"/>
	</g>
</g>
<g>
	<g>
		<path fill="#919191"  d="M104.091,272.181h-32c-8.837,0-16,7.163-16,16v32c0,8.837,7.163,16,16,16h32c8.837,0,16-7.163,16-16v-32
			C120.091,279.345,112.927,272.181,104.091,272.181z M104.091,320.181h-32v-32h32V320.181z"/>
	</g>
</g>
<g>
	<g>
		<path fill="#919191"  d="M128.091,352.181h-80c-26.499,0.026-47.974,21.501-48,48v72c0,4.418,3.582,8,8,8h160c4.418,0,8-3.582,8-8v-72
			C176.064,373.683,154.589,352.208,128.091,352.181z M103.443,368.181l-15.352,19.2l-15.352-19.2H103.443z M160.091,464.181h-24
			v-40h-16v40h-64v-40h-16v40h-24v-64c0-17.673,14.327-32,32-32h4.152l29.6,37c2.759,3.451,7.794,4.011,11.244,1.252
			c0.462-0.37,0.882-0.789,1.252-1.252l29.6-37h4.152c17.673,0,32,14.327,32,32V464.181z"/>
	</g>
</g>
<g>
	<g>
		<rect fill="#919191"  x="384.091" y="424.181" width="16" height="16"/>
	</g>
</g>
<g>
	<g>
		<path fill="#919191"  d="M408.091,272.181h-32c-8.837,0-16,7.163-16,16v32c0,8.837,7.163,16,16,16h32c8.837,0,16-7.163,16-16v-32
			C424.091,279.345,416.927,272.181,408.091,272.181z M408.091,320.181h-32v-32h32V320.181z"/>
	</g>
</g>
<g>
	<g>
		<path fill="#919191"  d="M432.091,352.181h-80c-26.499,0.026-47.974,21.501-48,48v72c0,4.418,3.582,8,8,8h160c4.418,0,8-3.582,8-8v-72
			C480.064,373.683,458.589,352.208,432.091,352.181z M407.443,368.181l-15.352,19.2l-15.352-19.2H407.443z M464.091,464.181h-24
			v-40h-16v40h-64v-40h-16v40h-24v-64c0-17.673,14.327-32,32-32h4.152l29.6,37c2.759,3.451,7.794,4.011,11.244,1.252
			c0.462-0.37,0.882-0.789,1.252-1.252l29.6-37h4.152c17.673,0,32,14.327,32,32V464.181z"/>
	</g>
</g>
<g>
</g>
<g>
</g>
<g> 
</g>
<g>
</g>
<g>
</g>
<g>
</g>
<g>
</g>
<g>
</g>
<g>
</g>
<g>
</g>
<g>
</g>
<g>
</g>
<g>
</g>
<g>
</g>
<g>
</g>
</svg>
